<svg width="341" height="205" viewBox="0 0 341 205" fill="none" xmlns="http://www.w3.org/2000/svg">
<path d="M244.273 204.551H101.503V56.9512C101.503 25.5481 126.858 0 158.024 0H187.752C218.918 0 244.273 25.5481 244.273 56.9512V204.551Z" fill="#3F3D56"/>
<path d="M214.545 204.551H101.503V56.9511C101.472 44.9182 105.253 33.1894 112.297 23.4723C112.557 23.1158 112.816 22.7638 113.083 22.4156C116.49 17.9132 120.544 13.9479 125.112 10.6508C125.37 10.4616 125.629 10.2757 125.892 10.0898C129.715 7.42447 133.85 5.24564 138.203 3.60287C138.461 3.50414 138.724 3.40522 138.988 3.31035C142.925 1.89468 147.006 0.924948 151.156 0.419069C151.413 0.383657 151.677 0.355946 151.941 0.328236C155.985 -0.107459 160.064 -0.107459 164.108 0.328236C164.371 0.355946 164.636 0.383654 164.896 0.419448C169.045 0.92536 173.125 1.89497 177.061 3.31036C177.324 3.40524 177.587 3.50415 177.846 3.60307C182.146 5.22512 186.232 7.37144 190.014 9.99414C190.276 10.176 190.539 10.3619 190.799 10.5478C193.359 12.3895 195.764 14.4412 197.989 16.682C199.774 18.4794 201.436 20.3953 202.966 22.4168C203.233 22.7638 203.492 23.1158 203.751 23.4718C210.795 33.1889 214.576 44.9179 214.545 56.9511V204.551Z" fill="#CCCCCC"/>
<path d="M205.353 138.535C208.81 138.535 211.612 135.712 211.612 132.229C211.612 128.747 208.81 125.923 205.353 125.923C201.897 125.923 199.095 128.747 199.095 132.229C199.095 135.712 201.897 138.535 205.353 138.535Z" fill="#FF6884"/>
<path d="M232.577 200.13H227.782L225.5 181.493L232.578 181.493L232.577 200.13Z" fill="#FFB8B8"/>
<path d="M224.356 198.75H233.604V204.617H218.533C218.533 203.846 218.684 203.083 218.976 202.372C219.269 201.66 219.698 201.013 220.239 200.468C220.779 199.923 221.421 199.491 222.128 199.196C222.834 198.901 223.592 198.75 224.356 198.75Z" fill="#2F2E41"/>
<path d="M256.437 200.13H251.642L249.36 181.493L256.438 181.493L256.437 200.13Z" fill="#FFB8B8"/>
<path d="M248.216 198.75H257.465V204.617H242.393C242.393 203.846 242.544 203.083 242.837 202.372C243.129 201.66 243.558 201.013 244.099 200.468C244.64 199.923 245.281 199.491 245.988 199.196C246.694 198.901 247.452 198.75 248.216 198.75Z" fill="#2F2E41"/>
<path d="M208.521 133.478C208.176 132.966 207.946 132.384 207.849 131.773C207.751 131.162 207.788 130.537 207.956 129.941C208.124 129.346 208.42 128.795 208.822 128.327C209.225 127.86 209.724 127.487 210.285 127.234L226.586 81.9624L234.608 86.3732L215.995 129.637C216.353 130.614 216.343 131.69 215.966 132.661C215.59 133.632 214.873 134.429 213.951 134.903C213.03 135.376 211.968 135.493 210.967 135.23C209.966 134.968 209.096 134.345 208.521 133.478Z" fill="#FFB8B8"/>
<path d="M253.988 141.985C253.455 141.677 252.995 141.255 252.642 140.749C252.288 140.243 252.049 139.665 251.941 139.056C251.833 138.446 251.859 137.821 252.017 137.222C252.175 136.624 252.462 136.068 252.856 135.594L247.806 87.7039L256.934 88.1241L259.033 135.23C259.781 135.951 260.24 136.922 260.323 137.961C260.407 139 260.11 140.033 259.488 140.866C258.866 141.699 257.963 142.272 256.949 142.479C255.935 142.685 254.881 142.509 253.988 141.985Z" fill="#FFB8B8"/>
<path d="M239.425 73.5768C244.731 73.5768 249.032 69.2429 249.032 63.8967C249.032 58.5505 244.731 54.2166 239.425 54.2166C234.119 54.2166 229.818 58.5505 229.818 63.8967C229.818 69.2429 234.119 73.5768 239.425 73.5768Z" fill="#FFB8B8"/>
<path d="M253.926 131.094H224.962L224.997 130.867C225.049 130.527 230.159 96.7987 226.39 85.7644C226.012 84.68 226.046 83.493 226.484 82.4319C226.922 81.3708 227.734 80.5105 228.764 80.0166C234.151 77.4606 244.492 74.3132 253.219 81.9515C254.504 83.094 255.506 84.5219 256.149 86.1223C256.791 87.7226 257.055 89.4516 256.919 91.1724L253.926 131.094Z" fill="#5A8FEC"/>
<path d="M230.525 101.783L217.486 99.1177L223.598 84.5233C223.964 83.1097 224.871 81.9001 226.121 81.1596C227.371 80.4192 228.861 80.2084 230.264 80.5736C231.668 80.9387 232.871 81.85 233.609 83.1074C234.347 84.3649 234.559 85.8659 234.2 87.2812L230.525 101.783Z" fill="#5A8FEC"/>
<path d="M247.226 106.732L246.442 88.6257C245.848 85.222 247.781 82.0043 250.755 81.4783C253.73 80.9543 256.635 83.315 257.232 86.7438L260.179 103.663L247.226 106.732Z" fill="#5A8FEC"/>
<path d="M252.962 128.926C257.623 146.81 258.131 169.548 256.874 194.351L250.615 193.563L239.272 146.267L233.014 194.351L225.973 193.957C223.87 167.933 221.822 145.591 225.191 130.897L252.962 128.926Z" fill="#2F2E41"/>
<path d="M245.755 71.3778C243.963 73.3015 240.634 72.2688 240.401 69.6408C240.382 69.4368 240.384 69.2315 240.405 69.0277C240.525 67.8636 241.193 66.8068 241.033 65.5777C240.997 65.2718 240.884 64.9803 240.704 64.7307C239.276 62.8037 235.923 65.5926 234.576 63.8482C233.749 62.7785 234.721 61.0944 234.086 59.8988C233.249 58.3209 230.77 59.0993 229.215 58.2352C227.485 57.2737 227.589 54.5993 228.727 52.9725C230.116 50.9887 232.551 49.9301 234.956 49.7775C237.36 49.6249 239.749 50.2799 241.993 51.1615C244.544 52.1631 247.074 53.5473 248.643 55.8072C250.552 58.5555 250.736 62.2504 249.781 65.464C249.2 67.4189 247.218 69.807 245.755 71.3778Z" fill="#2F2E41"/>
<path d="M328.558 204.805H39.7752C39.6519 204.805 39.5338 204.755 39.4467 204.667C39.3597 204.579 39.3108 204.46 39.3108 204.336C39.3108 204.211 39.3597 204.092 39.4467 204.004C39.5338 203.916 39.6519 203.867 39.7752 203.866H328.558C328.682 203.867 328.8 203.916 328.887 204.004C328.974 204.092 329.023 204.211 329.023 204.336C329.023 204.46 328.974 204.579 328.887 204.667C328.8 204.755 328.682 204.805 328.558 204.805Z" fill="#3F3D56"/>
<path d="M183.449 161.789H132.599C131.93 161.792 131.286 161.528 130.809 161.054C130.333 160.58 130.062 159.935 130.057 159.26V44.8969C130.062 44.2221 130.333 43.577 130.809 43.103C131.286 42.629 131.93 42.3648 132.599 42.3684H183.449C184.118 42.3648 184.762 42.629 185.239 43.103C185.715 43.577 185.986 44.2221 185.991 44.8969V159.26C185.986 159.935 185.715 160.58 185.239 161.054C184.762 161.528 184.118 161.792 183.449 161.789Z" fill="white"/>
<path d="M185.991 79.3728H130.057V80.1611H185.991V79.3728Z" fill="#CCCCCC"/>
<path d="M186.187 124.347H130.252V125.135H186.187V124.347Z" fill="#CCCCCC"/>
<path d="M148.441 42.3685H147.659V162.183H148.441V42.3685Z" fill="#CCCCCC"/>
<path d="M167.999 42.3685H167.216V162.183H167.999V42.3685Z" fill="#CCCCCC"/>
</svg>
